<mxfile host="app.diagrams.net" agent="Mozilla/5.0 (Windows NT 10.0; Win64; x64) AppleWebKit/537.36 (KHTML, like Gecko) Chrome/131.0.0.0 Safari/537.36" version="26.0.0">
  <diagram name="Page-1" id="viEkfjNbGJ_jdDST7wps">
    <mxGraphModel dx="1100" dy="585" grid="1" gridSize="10" guides="1" tooltips="1" connect="1" arrows="1" fold="1" page="1" pageScale="1" pageWidth="850" pageHeight="1100" math="0" shadow="0">
      <root>
        <mxCell id="0" />
        <mxCell id="1" parent="0" />
        <mxCell id="FDnlaXP-Ce070wUVNuau-1" value="Git-Repo" style="rounded=0;whiteSpace=wrap;html=1;" vertex="1" parent="1">
          <mxGeometry x="330" y="120" width="110" height="50" as="geometry" />
        </mxCell>
        <mxCell id="FDnlaXP-Ce070wUVNuau-2" value="Blob" style="ellipse;whiteSpace=wrap;html=1;aspect=fixed;" vertex="1" parent="1">
          <mxGeometry x="610" y="140" width="60" height="60" as="geometry" />
        </mxCell>
        <mxCell id="FDnlaXP-Ce070wUVNuau-3" value="Commit" style="rounded=1;whiteSpace=wrap;html=1;" vertex="1" parent="1">
          <mxGeometry x="700" y="125" width="110" height="40" as="geometry" />
        </mxCell>
        <mxCell id="FDnlaXP-Ce070wUVNuau-5" value="Tree" style="shape=internalStorage;whiteSpace=wrap;html=1;backgroundOutline=1;" vertex="1" parent="1">
          <mxGeometry x="715" y="190" width="90" height="60" as="geometry" />
        </mxCell>
        <mxCell id="FDnlaXP-Ce070wUVNuau-30" style="edgeStyle=orthogonalEdgeStyle;rounded=0;orthogonalLoop=1;jettySize=auto;html=1;entryX=0.25;entryY=0;entryDx=0;entryDy=0;" edge="1" parent="1" source="FDnlaXP-Ce070wUVNuau-7" target="FDnlaXP-Ce070wUVNuau-11">
          <mxGeometry relative="1" as="geometry" />
        </mxCell>
        <mxCell id="FDnlaXP-Ce070wUVNuau-38" style="edgeStyle=orthogonalEdgeStyle;rounded=0;orthogonalLoop=1;jettySize=auto;html=1;entryX=0;entryY=0.5;entryDx=0;entryDy=0;" edge="1" parent="1" source="FDnlaXP-Ce070wUVNuau-7" target="FDnlaXP-Ce070wUVNuau-34">
          <mxGeometry relative="1" as="geometry" />
        </mxCell>
        <mxCell id="FDnlaXP-Ce070wUVNuau-7" value="89ace" style="rounded=1;whiteSpace=wrap;html=1;" vertex="1" parent="1">
          <mxGeometry x="30" y="430" width="130" height="40" as="geometry" />
        </mxCell>
        <mxCell id="FDnlaXP-Ce070wUVNuau-10" value="" style="edgeStyle=orthogonalEdgeStyle;rounded=0;orthogonalLoop=1;jettySize=auto;html=1;" edge="1" parent="1" source="FDnlaXP-Ce070wUVNuau-8" target="FDnlaXP-Ce070wUVNuau-7">
          <mxGeometry relative="1" as="geometry" />
        </mxCell>
        <mxCell id="FDnlaXP-Ce070wUVNuau-29" style="edgeStyle=orthogonalEdgeStyle;rounded=0;orthogonalLoop=1;jettySize=auto;html=1;" edge="1" parent="1" source="FDnlaXP-Ce070wUVNuau-8" target="FDnlaXP-Ce070wUVNuau-16">
          <mxGeometry relative="1" as="geometry" />
        </mxCell>
        <mxCell id="FDnlaXP-Ce070wUVNuau-8" value="d2a24" style="rounded=1;whiteSpace=wrap;html=1;" vertex="1" parent="1">
          <mxGeometry x="20" y="300" width="100" height="40" as="geometry" />
        </mxCell>
        <mxCell id="FDnlaXP-Ce070wUVNuau-11" value="77729" style="shape=internalStorage;whiteSpace=wrap;html=1;backgroundOutline=1;" vertex="1" parent="1">
          <mxGeometry x="90" y="550" width="80" height="60" as="geometry" />
        </mxCell>
        <mxCell id="FDnlaXP-Ce070wUVNuau-14" value="31eb2" style="ellipse;whiteSpace=wrap;html=1;aspect=fixed;" vertex="1" parent="1">
          <mxGeometry x="130" y="650" width="70" height="70" as="geometry" />
        </mxCell>
        <mxCell id="FDnlaXP-Ce070wUVNuau-15" style="edgeStyle=orthogonalEdgeStyle;rounded=0;orthogonalLoop=1;jettySize=auto;html=1;entryX=0.013;entryY=0.588;entryDx=0;entryDy=0;entryPerimeter=0;" edge="1" parent="1" source="FDnlaXP-Ce070wUVNuau-11" target="FDnlaXP-Ce070wUVNuau-14">
          <mxGeometry relative="1" as="geometry" />
        </mxCell>
        <mxCell id="FDnlaXP-Ce070wUVNuau-18" style="edgeStyle=orthogonalEdgeStyle;rounded=0;orthogonalLoop=1;jettySize=auto;html=1;" edge="1" parent="1" source="FDnlaXP-Ce070wUVNuau-16" target="FDnlaXP-Ce070wUVNuau-17">
          <mxGeometry relative="1" as="geometry" />
        </mxCell>
        <mxCell id="FDnlaXP-Ce070wUVNuau-16" value="0a556" style="shape=internalStorage;whiteSpace=wrap;html=1;backgroundOutline=1;" vertex="1" parent="1">
          <mxGeometry x="250" y="350" width="80" height="70" as="geometry" />
        </mxCell>
        <mxCell id="FDnlaXP-Ce070wUVNuau-17" value="e69de" style="ellipse;whiteSpace=wrap;html=1;aspect=fixed;" vertex="1" parent="1">
          <mxGeometry x="400" y="370" width="80" height="80" as="geometry" />
        </mxCell>
        <mxCell id="FDnlaXP-Ce070wUVNuau-23" style="edgeStyle=orthogonalEdgeStyle;rounded=0;orthogonalLoop=1;jettySize=auto;html=1;entryX=0.333;entryY=1;entryDx=0;entryDy=0;entryPerimeter=0;" edge="1" parent="1" source="FDnlaXP-Ce070wUVNuau-8">
          <mxGeometry relative="1" as="geometry">
            <mxPoint x="49.97000000000003" y="230" as="targetPoint" />
          </mxGeometry>
        </mxCell>
        <mxCell id="FDnlaXP-Ce070wUVNuau-26" value="Parent" style="text;html=1;align=center;verticalAlign=middle;whiteSpace=wrap;rounded=0;" vertex="1" parent="1">
          <mxGeometry x="60" y="240" width="60" height="30" as="geometry" />
        </mxCell>
        <mxCell id="FDnlaXP-Ce070wUVNuau-27" value="Commit 1" style="text;html=1;align=center;verticalAlign=middle;whiteSpace=wrap;rounded=0;" vertex="1" parent="1">
          <mxGeometry x="40" y="340" width="60" height="30" as="geometry" />
        </mxCell>
        <mxCell id="FDnlaXP-Ce070wUVNuau-28" value="Commit 2" style="text;html=1;align=center;verticalAlign=middle;whiteSpace=wrap;rounded=0;" vertex="1" parent="1">
          <mxGeometry x="40" y="470" width="60" height="30" as="geometry" />
        </mxCell>
        <mxCell id="FDnlaXP-Ce070wUVNuau-31" value="5d0f0" style="ellipse;whiteSpace=wrap;html=1;aspect=fixed;" vertex="1" parent="1">
          <mxGeometry x="560" y="710" width="80" height="80" as="geometry" />
        </mxCell>
        <mxCell id="FDnlaXP-Ce070wUVNuau-32" value="a5a8e" style="ellipse;whiteSpace=wrap;html=1;aspect=fixed;" vertex="1" parent="1">
          <mxGeometry x="720" y="710" width="80" height="80" as="geometry" />
        </mxCell>
        <mxCell id="FDnlaXP-Ce070wUVNuau-39" style="edgeStyle=orthogonalEdgeStyle;rounded=0;orthogonalLoop=1;jettySize=auto;html=1;entryX=1;entryY=0;entryDx=0;entryDy=0;" edge="1" parent="1" source="FDnlaXP-Ce070wUVNuau-33" target="FDnlaXP-Ce070wUVNuau-31">
          <mxGeometry relative="1" as="geometry" />
        </mxCell>
        <mxCell id="FDnlaXP-Ce070wUVNuau-33" value="7d295" style="shape=internalStorage;whiteSpace=wrap;html=1;backgroundOutline=1;" vertex="1" parent="1">
          <mxGeometry x="640" y="560" width="80" height="70" as="geometry" />
        </mxCell>
        <mxCell id="FDnlaXP-Ce070wUVNuau-34" value="6d7f3" style="rounded=1;whiteSpace=wrap;html=1;" vertex="1" parent="1">
          <mxGeometry x="385" y="610" width="110" height="40" as="geometry" />
        </mxCell>
        <mxCell id="FDnlaXP-Ce070wUVNuau-35" style="edgeStyle=orthogonalEdgeStyle;rounded=0;orthogonalLoop=1;jettySize=auto;html=1;entryX=0.011;entryY=0.611;entryDx=0;entryDy=0;entryPerimeter=0;" edge="1" parent="1" source="FDnlaXP-Ce070wUVNuau-34" target="FDnlaXP-Ce070wUVNuau-33">
          <mxGeometry relative="1" as="geometry" />
        </mxCell>
        <mxCell id="FDnlaXP-Ce070wUVNuau-41" style="edgeStyle=orthogonalEdgeStyle;rounded=0;orthogonalLoop=1;jettySize=auto;html=1;entryX=0.594;entryY=0.042;entryDx=0;entryDy=0;entryPerimeter=0;" edge="1" parent="1" source="FDnlaXP-Ce070wUVNuau-33" target="FDnlaXP-Ce070wUVNuau-32">
          <mxGeometry relative="1" as="geometry" />
        </mxCell>
        <mxCell id="FDnlaXP-Ce070wUVNuau-42" value="Commit 3" style="text;html=1;align=center;verticalAlign=middle;whiteSpace=wrap;rounded=0;" vertex="1" parent="1">
          <mxGeometry x="410" y="650" width="60" height="30" as="geometry" />
        </mxCell>
        <mxCell id="FDnlaXP-Ce070wUVNuau-43" value="NULL" style="text;html=1;align=center;verticalAlign=middle;whiteSpace=wrap;rounded=0;" vertex="1" parent="1">
          <mxGeometry x="10" y="200" width="80" height="50" as="geometry" />
        </mxCell>
        <mxCell id="FDnlaXP-Ce070wUVNuau-44" value="styles.css" style="text;html=1;align=center;verticalAlign=middle;whiteSpace=wrap;rounded=0;" vertex="1" parent="1">
          <mxGeometry x="730" y="790" width="60" height="30" as="geometry" />
        </mxCell>
        <mxCell id="FDnlaXP-Ce070wUVNuau-45" value="index.html" style="text;html=1;align=center;verticalAlign=middle;whiteSpace=wrap;rounded=0;" vertex="1" parent="1">
          <mxGeometry x="570" y="790" width="60" height="30" as="geometry" />
        </mxCell>
        <mxCell id="FDnlaXP-Ce070wUVNuau-46" value="index.html" style="text;html=1;align=center;verticalAlign=middle;whiteSpace=wrap;rounded=0;" vertex="1" parent="1">
          <mxGeometry x="135" y="720" width="60" height="30" as="geometry" />
        </mxCell>
        <mxCell id="FDnlaXP-Ce070wUVNuau-47" value="index.html" style="text;html=1;align=center;verticalAlign=middle;whiteSpace=wrap;rounded=0;" vertex="1" parent="1">
          <mxGeometry x="410" y="450" width="60" height="30" as="geometry" />
        </mxCell>
        <mxCell id="FDnlaXP-Ce070wUVNuau-48" value="b74dc2" style="ellipse;whiteSpace=wrap;html=1;aspect=fixed;" vertex="1" parent="1">
          <mxGeometry x="450" y="990" width="80" height="80" as="geometry" />
        </mxCell>
        <mxCell id="FDnlaXP-Ce070wUVNuau-54" style="edgeStyle=orthogonalEdgeStyle;rounded=0;orthogonalLoop=1;jettySize=auto;html=1;entryX=0.5;entryY=0;entryDx=0;entryDy=0;" edge="1" parent="1" source="FDnlaXP-Ce070wUVNuau-49" target="FDnlaXP-Ce070wUVNuau-50">
          <mxGeometry relative="1" as="geometry" />
        </mxCell>
        <mxCell id="FDnlaXP-Ce070wUVNuau-49" value="613595" style="shape=internalStorage;whiteSpace=wrap;html=1;backgroundOutline=1;" vertex="1" parent="1">
          <mxGeometry x="150" y="830" width="85" height="80" as="geometry" />
        </mxCell>
        <mxCell id="FDnlaXP-Ce070wUVNuau-50" value="a5a8e" style="ellipse;whiteSpace=wrap;html=1;aspect=fixed;" vertex="1" parent="1">
          <mxGeometry x="200" y="960" width="80" height="80" as="geometry" />
        </mxCell>
        <mxCell id="FDnlaXP-Ce070wUVNuau-51" value="5d0f0" style="ellipse;whiteSpace=wrap;html=1;aspect=fixed;" vertex="1" parent="1">
          <mxGeometry x="70" y="950" width="80" height="80" as="geometry" />
        </mxCell>
        <mxCell id="FDnlaXP-Ce070wUVNuau-52" value="f36deb" style="shape=internalStorage;whiteSpace=wrap;html=1;backgroundOutline=1;" vertex="1" parent="1">
          <mxGeometry x="320" y="960" width="80" height="60" as="geometry" />
        </mxCell>
        <mxCell id="FDnlaXP-Ce070wUVNuau-53" style="edgeStyle=orthogonalEdgeStyle;rounded=0;orthogonalLoop=1;jettySize=auto;html=1;entryX=0.6;entryY=0.013;entryDx=0;entryDy=0;entryPerimeter=0;" edge="1" parent="1" source="FDnlaXP-Ce070wUVNuau-49" target="FDnlaXP-Ce070wUVNuau-51">
          <mxGeometry relative="1" as="geometry" />
        </mxCell>
        <mxCell id="FDnlaXP-Ce070wUVNuau-56" style="edgeStyle=orthogonalEdgeStyle;rounded=0;orthogonalLoop=1;jettySize=auto;html=1;entryX=0.35;entryY=0.038;entryDx=0;entryDy=0;entryPerimeter=0;" edge="1" parent="1" source="FDnlaXP-Ce070wUVNuau-49" target="FDnlaXP-Ce070wUVNuau-52">
          <mxGeometry relative="1" as="geometry" />
        </mxCell>
        <mxCell id="FDnlaXP-Ce070wUVNuau-57" style="edgeStyle=orthogonalEdgeStyle;rounded=0;orthogonalLoop=1;jettySize=auto;html=1;entryX=0;entryY=0.625;entryDx=0;entryDy=0;entryPerimeter=0;" edge="1" parent="1" source="FDnlaXP-Ce070wUVNuau-52" target="FDnlaXP-Ce070wUVNuau-48">
          <mxGeometry relative="1" as="geometry" />
        </mxCell>
        <mxCell id="FDnlaXP-Ce070wUVNuau-58" value="fa8acc" style="rounded=1;whiteSpace=wrap;html=1;" vertex="1" parent="1">
          <mxGeometry x="330" y="750" width="100" height="50" as="geometry" />
        </mxCell>
        <mxCell id="FDnlaXP-Ce070wUVNuau-59" value="Commit 4" style="text;html=1;align=center;verticalAlign=middle;whiteSpace=wrap;rounded=0;" vertex="1" parent="1">
          <mxGeometry x="350" y="800" width="60" height="30" as="geometry" />
        </mxCell>
        <mxCell id="FDnlaXP-Ce070wUVNuau-60" style="edgeStyle=orthogonalEdgeStyle;rounded=0;orthogonalLoop=1;jettySize=auto;html=1;entryX=0.6;entryY=-0.075;entryDx=0;entryDy=0;entryPerimeter=0;" edge="1" parent="1" source="FDnlaXP-Ce070wUVNuau-34" target="FDnlaXP-Ce070wUVNuau-58">
          <mxGeometry relative="1" as="geometry" />
        </mxCell>
        <mxCell id="FDnlaXP-Ce070wUVNuau-61" style="edgeStyle=orthogonalEdgeStyle;rounded=0;orthogonalLoop=1;jettySize=auto;html=1;entryX=0.632;entryY=0.016;entryDx=0;entryDy=0;entryPerimeter=0;" edge="1" parent="1" source="FDnlaXP-Ce070wUVNuau-58" target="FDnlaXP-Ce070wUVNuau-49">
          <mxGeometry relative="1" as="geometry" />
        </mxCell>
      </root>
    </mxGraphModel>
  </diagram>
</mxfile>
